<?xml version="1.0" encoding="UTF-8" standalone="no"?>
<svg
   viewBox="0 0 704.56 809.86"
   version="1.1"
   id="svg29"
   sodipodi:docname="icon-main-dark-title.svg"
   width="704.56"
   height="809.85999"
   inkscape:version="1.3 (0e150ed6c4, 2023-07-21)"
   xmlns:inkscape="http://www.inkscape.org/namespaces/inkscape"
   xmlns:sodipodi="http://sodipodi.sourceforge.net/DTD/sodipodi-0.dtd"
   xmlns="http://www.w3.org/2000/svg"
   xmlns:svg="http://www.w3.org/2000/svg"
   xmlns:rdf="http://www.w3.org/1999/02/22-rdf-syntax-ns#"
   xmlns:cc="http://creativecommons.org/ns#"
   xmlns:dc="http://purl.org/dc/elements/1.1/">
  <defs
     id="defs29" />
  <sodipodi:namedview
     id="namedview29"
     pagecolor="#ffffff"
     bordercolor="#666666"
     borderopacity="1.0"
     inkscape:showpageshadow="2"
     inkscape:pageopacity="0.0"
     inkscape:pagecheckerboard="0"
     inkscape:deskcolor="#d1d1d1"
     inkscape:zoom="0.99893811"
     inkscape:cx="326.84708"
     inkscape:cy="404.92999"
     inkscape:window-width="1920"
     inkscape:window-height="1009"
     inkscape:window-x="-8"
     inkscape:window-y="-8"
     inkscape:window-maximized="1"
     inkscape:current-layer="svg29" />
  <title
     id="title1">Logo-17-dark-with-title</title>
  <g
     id="g30"
     transform="translate(25.178624)">
    <path
       fill="#44bd32"
       d="m 311.07,669.93 c -6.46,-1.49 -13.1,-1.39 -19.64,-2.2 A 301.83,301.83 0 0 1 171.47,626.26 c -0.18,-0.11 -0.29,-0.34 -0.62,-0.73 a 147.59,147.59 0 0 0 20.14,-14.45 c 19.53,-16.82 33.84,-37.52 45.36,-60.37 13.11,-26 22,-53.27 24.85,-82.31 3.11,-31.37 -0.41,-62.12 -9.27,-92.31 a 325.54,325.54 0 0 0 -23.35,-57.78 c -15,-29.08 -26.31,-59.49 -30.09,-92.1 -9.62,-82.74 16.17,-152.08 80.18,-206.21 10.49,-8.88 22.43,-15.63 36,-18.85 6.49,-1.54 12.88,-1.64 19.24,0.78 9,3.42 12.78,11.81 9.07,20.71 -2.7,6.48 -7.29,11.68 -11.73,17 -9.78,11.63 -19.6,23.2 -27.1,36.53 -17.41,30.95 -16.66,62.49 -3.3,94.48 9.44,22.58 23.45,42.25 38.79,61.1 30.78,37.82 59.61,77 83.19,119.84 18.6,33.79 33.21,69.09 40.76,107.1 a 280.25,280.25 0 0 1 3.28,91.72 c -3.3,25 -8,49.7 -18.58,72.89 a 126.61,126.61 0 0 1 -15,25.56 14.45,14.45 0 0 1 -7.19,5.09 325.33,325.33 0 0 1 -61.23,13.86 c -5.89,0.75 -11.88,0.58 -17.67,2.12 z m 71.61,-70.85 a 33.91,33.91 0 1 0 -33.92,-34 33.94,33.94 0 0 0 33.92,34 z m -73.09,-67.82 a 33.91,33.91 0 1 0 33.89,34 34,34 0 0 0 -33.89,-34.01 z m 19.74,-28.65 a 29,29 0 1 0 -28.8,-29.14 29,29 0 0 0 28.79,29.13 z m 62.38,-60.29 a 29,29 0 1 0 28.65,29.28 29.06,29.06 0 0 0 -28.66,-29.29 z m -70.37,-73.86 a 26,26 0 1 0 25.91,26.28 26,26 0 0 0 -25.92,-26.29 z m 81.69,17.71 a 26,26 0 1 0 -25.8,26 26,26 0 0 0 25.79,-26.01 z m -53.72,-46.38 a 23.35,23.35 0 1 0 -23.15,-23.36 23.42,23.42 0 0 0 23.14,23.35 z m -25.44,-11.13 a 23.36,23.36 0 1 0 -23.71,23.19 23.46,23.46 0 0 0 23.71,-23.19 z M 314.71,278 a 21.1,21.1 0 1 0 -21,-21.14 21.15,21.15 0 0 0 21,21.14 z m -42,-24.86 a 21.1,21.1 0 1 0 21,21.12 21.13,21.13 0 0 0 -20.97,-21.13 z m 12.65,-66.31 c -10.89,-0.2 -20,8.11 -20.29,18.43 a 19.77,19.77 0 0 0 19.64,20 c 10.93,0.16 20.06,-8.14 20.3,-18.43 a 19.77,19.77 0 0 0 -19.62,-20.01 z m -42.49,9.78 c -10.92,0 -19.9,8.34 -20,18.71 -0.13,10.78 8.84,19.67 19.91,19.72 11.07,0.05 20.09,-8.51 20.09,-19.04 0,-10.53 -9,-19.34 -20,-19.39 z m 25,-58 c -9.93,0.07 -18,8 -17.91,17.49 0.09,9.49 8.3,17.23 18.25,17.16 9.95,-0.07 18,-8 17.9,-17.49 -0.1,-9.49 -8.24,-17.25 -18.18,-17.18 z m -38.2,37.64 c 9.94,0 18.05,-7.86 18,-17.38 -0.05,-9.52 -8.2,-17.3 -18.14,-17.26 -9.94,0.04 -18,7.84 -18,17.38 0,9.54 8.25,17.27 18.2,17.24 z m 35.34,-68.15 a 15.81,15.81 0 1 0 -15.75,15.4 15.68,15.68 0 0 0 15.81,-15.42 z m 5.42,-51.66 c -7.45,-0.06 -13.62,5.67 -13.68,12.69 -0.06,7.02 6.07,12.87 13.5,12.87 7.43,0 13.62,-5.62 13.68,-12.65 0.06,-7.03 -5.99,-12.87 -13.44,-12.93 z m 36.84,-15.39 c 0.05,-5.57 -4.84,-10.21 -10.81,-10.26 -5.97,-0.05 -11,4.54 -11,10.07 0,5.53 4.86,10.21 10.82,10.26 5.96,0.05 10.94,-4.51 10.99,-10.07 z"
       id="path1" />
    <g
       id="g29">
      <path
         fill="#2f3640"
         d="m 630.43,347 c 3,23 -3.82,76.48 -8.84,95.84 a 301.46,301.46 0 0 1 -31.26,75.8 332,332 0 0 1 -32,45.26 c -6.41,7.74 -13.8,14.55 -20.83,21.71 -1.4,1.43 -2.33,1.33 -3.69,0 Q 512.54,564.21 491.17,543 c -2.34,-2.31 -1,-3.6 0.67,-5.2 a 243.43,243.43 0 0 0 36.73,-44.93 238.91,238.91 0 0 0 36.4,-136.77 241.7,241.7 0 0 0 -8.76,-54.54 232.51,232.51 0 0 0 -16.41,-42.3 243.63,243.63 0 0 0 -30.22,-45.54 237.26,237.26 0 0 0 -64,-53.77 229.8,229.8 0 0 0 -71.79,-26.7 264.82,264.82 0 0 0 -56.3,-4.5 c -2.76,0.06 -5.39,1 -8.19,0.86 -2.63,-0.1 -3.57,-1.1 -3.47,-3.65 0.52,-13.85 2.73,-27.34 8.64,-40 a 138.16,138.16 0 0 1 12,-21.28 4.62,4.62 0 0 1 4.31,-2.26 319.27,319.27 0 0 1 42.76,3.58 292.64,292.64 0 0 1 55.53,13.82 303.22,303.22 0 0 1 51,23.7 289.28,289.28 0 0 1 45.21,32.06 311.82,311.82 0 0 1 61.76,72.65 299.59,299.59 0 0 1 24,48.44 294.81,294.81 0 0 1 14.65,50.73 299.91,299.91 0 0 1 4.29,30"
         id="path2" />
      <path
         fill="#2f3640"
         d="m 25.43,399 c -9,-53 9.49,-119.52 20.65,-147 A 301.14,301.14 0 0 1 88.87,178.58 317.5,317.5 0 0 1 123.38,141.47 288.52,288.52 0 0 1 179.51,101 c 7.15,-3.94 14.52,-7.41 21.76,-11.16 1.39,-0.72 2.93,-1.16 5.28,-2.06 -3,6.38 -5.63,11.83 -8,17.4 a 214.85,214.85 0 0 0 -14.87,50.59 c -1,6.28 -2.21,12.54 -2.23,18.92 0,4.57 -3.08,7.07 -6.16,9.57 a 219.87,219.87 0 0 0 -29.46,29.37 233.45,233.45 0 0 0 -24.57,34.93 229,229 0 0 0 -24.17,60.88 256.44,256.44 0 0 0 -6.25,41 217.18,217.18 0 0 0 -0.44,26.29 242.77,242.77 0 0 0 8.63,53.81 233,233 0 0 0 16.71,43 235.79,235.79 0 0 0 29.82,44.92 285.32,285.32 0 0 0 20.31,21.6 c 2.13,2.05 1.8,3.17 -0.12,5.07 q -20.76,20.54 -41.3,41.3 c -2.15,2.17 -3.48,2.31 -5.78,0.09 A 303.25,303.25 0 0 1 35.01,447.64 C 30.52,431.48 27.8,415.04 25.38,398.5"
         id="path3" />
      <path
         fill="#2f3640"
         d="m 302.22,40.62 a 5.83,5.83 0 0 1 -11.63,-0.1 5.83,5.83 0 0 1 11.63,0.1 z"
         id="path4" />
      <path
         fill="#2f3640"
         d="m 382.43,588.53 c -14.11,0 -23.12,-9.75 -23.12,-25 0,-12.77 10.42,-21.71 25.3,-21.71 12.58,0 21.44,10.58 21.43,25.59 -0.01,11.59 -10.63,21.12 -23.61,21.12 z"
         id="path5" />
      <path
         fill="#2f3640"
         d="m 332.92,565.48 c 0,14.1 -9.74,23.05 -25.09,23.05 -12.72,0 -21.64,-10.47 -21.64,-25.37 0.01,-12.52 10.68,-21.16 25.68,-21.46 9.09,-0.21 22.8,11.07 21.05,23.78 z"
         id="path6" />
      <path
         fill="#2f3640"
         d="m 329.78,454.37 c 11.44,0 19,7.88 19,19.85 0,11.24 -8,18.6 -20.22,18.59 -10.88,0 -18.22,-8.16 -18.22,-20.22 -0.02,-10.59 8.16,-18.22 19.44,-18.22 z"
         id="path7" />
      <path
         fill="#2f3640"
         d="m 391.56,452.11 c 11.45,0 19,7.87 19,19.82 0,11.25 -8,18.63 -20.2,18.62 -10.9,0 -18.25,-8.14 -18.24,-20.2 0,-10.57 8.18,-18.24 19.44,-18.24 z"
         id="path8" />
      <path
         fill="#2f3640"
         d="m 321.14,411.41 c -10.51,0 -16.86,-6.61 -16.85,-17.54 0,-10.06 6.81,-16.38 17.62,-16.38 10,0 16.31,6.88 16.3,17.72 -0.02,9.64 -6.93,16.2 -17.07,16.2 z"
         id="path9" />
      <path
         fill="#2f3640"
         d="m 360.06,386 c 0,-9.91 7.07,-17.21 17.17,-17.27 8.49,-0.05 17.72,7.67 16.91,18.08 -0.77,10 -7,16.3 -17.89,16.3 -9.64,0 -16.2,-6.92 -16.19,-17.11 z"
         id="path10" />
      <path
         fill="#2f3640"
         d="m 363.87,316.59 c 1.14,7 -6.64,14.83 -14.39,14.3 -8.71,-0.59 -14.27,-5.82 -14.26,-14.79 0,-8.46 5.77,-14 14.56,-14 8.47,0.03 14.09,5.77 14.09,14.49 z"
         id="path11" />
      <path
         fill="#2f3640"
         d="m 300.67,314.18 c 7,-1.14 14.82,6.64 14.3,14.39 -0.59,8.71 -5.82,14.27 -14.79,14.26 -8.46,0 -14,-5.77 -14,-14.57 0.02,-8.51 5.76,-14.09 14.49,-14.08 z"
         id="path12" />
      <path
         fill="#2f3640"
         d="m 314.55,269.71 c -7.73,0 -12.54,-5 -12.53,-13.1 0,-7.73 5,-12.54 13.1,-12.53 7.73,0 12.54,5 12.53,13.1 -0.01,7.73 -5.04,12.54 -13.1,12.53 z"
         id="path13" />
      <path
         fill="#2f3640"
         d="m 272.44,287 c -7.81,0 -12.63,-5 -12.63,-13 0,-7.81 5,-12.63 13,-12.63 7.81,0 12.63,5 12.63,13 -0.01,7.85 -4.98,12.68 -13,12.63 z"
         id="path14" />
      <path
         fill="#2f3640"
         d="m 285.09,217 c -7.12,0 -11.71,-4.36 -11.71,-11.07 0,-6.71 4.43,-10.81 11.85,-10.79 7,0 11.54,4.47 11.52,11.25 -0.02,6.48 -4.52,10.61 -11.66,10.61 z"
         id="path15" />
      <path
         fill="#2f3640"
         d="m 243.15,226.75 c -7.44,0 -12,-4.25 -12,-11.17 0,-6.59 4.46,-10.7 11.57,-10.69 7.11,0.01 11.79,4.3 11.79,11 0,6.7 -4.35,10.86 -11.36,10.86 z"
         id="path16" />
      <path
         fill="#2f3640"
         d="m 278.66,156 c 0,5.94 -4.25,9.75 -10.82,9.71 -6.16,0 -10.29,-4 -10.28,-9.88 0.01,-5.88 4.25,-9.75 10.82,-9.71 6.16,0.02 10.29,3.99 10.28,9.88 z"
         id="path17" />
      <path
         fill="#2f3640"
         d="m 229.87,149.12 c 6.17,0 10.33,4 10.32,9.84 -0.01,5.84 -4.23,9.79 -10.78,9.76 -6.32,0 -10.38,-4 -10.32,-10.21 0.08,-5.66 4.4,-9.42 10.78,-9.39 z"
         id="path18" />
      <path
         fill="#2f3640"
         d="m 249.09,116 c -5.34,0 -8.14,-2.78 -8.12,-8 0.02,-5.22 2.78,-7.87 8.63,-7.83 5.23,0 8,2.89 8,8.17 -0.1,4.99 -3.02,7.66 -8.51,7.66 z"
         id="path19" />
      <path
         fill="#2f3640"
         d="m 270.42,75.25 c -4.6,-0.06 -6.95,-2.24 -6.84,-6.38 0.09,-3.68 2.75,-5.79 7.16,-5.68 4.06,0.1 6.42,2.33 6.41,6.06 -0.01,4.05 -2.28,6.06 -6.73,6 z"
         id="path20" />
    </g>
  </g>
  <path
     fill="#2f3640"
     d="m 45.81,809.48 a 42.92,42.92 0 0 1 -12.31,-1.75 44.51,44.51 0 0 1 -11,-4.94 45.65,45.65 0 0 1 -9.25,-7.66 47.51,47.51 0 0 1 -7.09,-9.94 52.61,52.61 0 0 1 -4.56,-11.72 53.44,53.44 0 0 1 0,-26.16 52.49,52.49 0 0 1 4.56,-11.75 47.56,47.56 0 0 1 7.09,-9.94 45.68,45.68 0 0 1 9.28,-7.62 44.55,44.55 0 0 1 11,-4.94 44.3,44.3 0 0 1 24.66,0 44.44,44.44 0 0 1 11,4.94 45.73,45.73 0 0 1 9.25,7.66 48.54,48.54 0 0 1 7.13,9.94 52.39,52.39 0 0 1 0,49.63 48.48,48.48 0 0 1 -7.12,9.94 45.7,45.7 0 0 1 -9.25,7.66 44.4,44.4 0 0 1 -11,4.94 43.25,43.25 0 0 1 -12.39,1.71 z m 0,-19.62 a 21.37,21.37 0 0 0 10,-2.34 24.17,24.17 0 0 0 7.78,-6.37 29.8,29.8 0 0 0 5,-9.37 37,37 0 0 0 0,-22.78 29.86,29.86 0 0 0 -5.09,-9.41 24.61,24.61 0 0 0 -7.78,-6.37 22,22 0 0 0 -19.75,0 24.26,24.26 0 0 0 -7.75,6.38 30.69,30.69 0 0 0 -5.13,9.4 35,35 0 0 0 -1.84,11.44 34.53,34.53 0 0 0 1.84,11.34 30.76,30.76 0 0 0 5.09,9.38 24.26,24.26 0 0 0 7.75,6.38 21.05,21.05 0 0 0 9.88,2.32 z"
     id="path21" />
  <path
     fill="#2f3640"
     d="m 150.62,765.42 a 18.78,18.78 0 0 0 -6,-5.09 14.91,14.91 0 0 0 -7.81,-1.47 14.26,14.26 0 0 0 -6.59,1 15.16,15.16 0 0 0 -5.12,3.5 15.8,15.8 0 0 0 -3.34,5.34 19.32,19.32 0 0 0 -1.19,7 17,17 0 0 0 1.25,6.5 16.33,16.33 0 0 0 3.41,5.28 15.37,15.37 0 0 0 5.13,3.47 20.23,20.23 0 0 0 6.47,1.5 18.39,18.39 0 0 0 5.34,-1.22 16.38,16.38 0 0 0 4.28,-2.5 17.29,17.29 0 0 0 3.22,-3.44 21.45,21.45 0 0 0 2.09,-3.59 l 17.19,4.75 a 29.76,29.76 0 0 1 -3.66,7.81 30.81,30.81 0 0 1 -6.75,7.41 35.81,35.81 0 0 1 -22.91,7.72 33.94,33.94 0 0 1 -13.69,-2.72 32.91,32.91 0 0 1 -10.75,-7.41 33.94,33.94 0 0 1 -7,-11 36.1,36.1 0 0 1 -2.53,-13.56 34,34 0 0 1 2.59,-13.34 33.59,33.59 0 0 1 7.16,-10.75 32.27,32.27 0 0 1 10.84,-7.16 32.82,32.82 0 0 1 13.62,-2.34 31,31 0 0 1 10.19,1.19 35.39,35.39 0 0 1 9.38,4.31 h 12.43 v 18.81 z"
     id="path22" />
  <path
     fill="#2f3640"
     d="m 200.31,743 h 12.94 v 16.38 h -13.07 l -0.12,27.38 a 16,16 0 0 0 0.38,3.84 6,6 0 0 0 1.09,2.34 3.57,3.57 0 0 0 1.72,1.19 7.74,7.74 0 0 0 2.31,0.31 16.81,16.81 0 0 0 4.19,-0.47 q 1.81,-0.47 3.63,-1.09 l 2.68,12.12 a 29.28,29.28 0 0 1 -7.09,3.19 32.13,32.13 0 0 1 -9.28,1.19 20.4,20.4 0 0 1 -7.28,-1.31 16.86,16.86 0 0 1 -6.09,-4 19.31,19.31 0 0 1 -4.19,-6.66 24.67,24.67 0 0 1 -1.5,-9.31 l 0.19,-28.69 h -9.31 V 743 h 9.36 l 0.13,-15.5 19.44,-9.25 z"
     id="path23" />
  <path
     fill="#2f3640"
     d="m 225.37,775.17 a 34.27,34.27 0 0 1 2.56,-13.25 33.1,33.1 0 0 1 18,-18.12 37.24,37.24 0 0 1 27.78,0 33.48,33.48 0 0 1 10.91,7.31 33.06,33.06 0 0 1 7.09,10.81 34.65,34.65 0 0 1 2.53,13.25 35.67,35.67 0 0 1 -2.47,13.28 32.39,32.39 0 0 1 -17.9,18.22 38.46,38.46 0 0 1 -28.25,0 32.18,32.18 0 0 1 -17.75,-18.15 35.82,35.82 0 0 1 -2.5,-13.35 z m 18.69,0 a 17.92,17.92 0 0 0 1.25,6.78 16.63,16.63 0 0 0 3.41,5.34 15.49,15.49 0 0 0 5,3.5 15,15 0 0 0 6.09,1.25 15.47,15.47 0 0 0 6.16,-1.22 14.45,14.45 0 0 0 4.94,-3.47 16.35,16.35 0 0 0 3.28,-5.34 19,19 0 0 0 1.19,-6.84 19.6,19.6 0 0 0 -1.19,-7 15.59,15.59 0 0 0 -3.28,-5.31 14.13,14.13 0 0 0 -4.94,-3.34 15.42,15.42 0 0 0 -6.16,-1.09 15.25,15.25 0 0 0 -6.09,1.09 14.76,14.76 0 0 0 -5,3.34 15.85,15.85 0 0 0 -3.41,5.31 18.69,18.69 0 0 0 -1.25,7 z"
     id="path24" />
  <path
     fill="#2f3640"
     d="m 303.81,713 h 36.38 a 45.62,45.62 0 0 1 12.47,1.69 46.28,46.28 0 0 1 27.72,21.63 47.49,47.49 0 0 1 4.63,11.31 49.86,49.86 0 0 1 0,25.25 48.06,48.06 0 0 1 -4.62,11.34 47.24,47.24 0 0 1 -7.22,9.63 45.62,45.62 0 0 1 -33,13.91 h -36.36 v -17.09 h 7.56 v -60.44 h -7.56 z m 28.31,17.19 v 60.44 h 7.94 a 20.19,20.19 0 0 0 9.56,-2.37 25,25 0 0 0 7.81,-6.47 31.93,31.93 0 0 0 5.25,-9.62 35.78,35.78 0 0 0 1.94,-11.91 35.32,35.32 0 0 0 -1.94,-11.81 31.61,31.61 0 0 0 -5.25,-9.56 24.41,24.41 0 0 0 -7.81,-6.37 20.64,20.64 0 0 0 -9.56,-2.31 z"
     id="path25" />
  <path
     fill="#2f3640"
     d="m 435.25,804.3 q -2.19,1.38 -4,2.34 a 22.7,22.7 0 0 1 -3.62,1.56 22.38,22.38 0 0 1 -3.75,0.88 29.7,29.7 0 0 1 -4.25,0.28 31.64,31.64 0 0 1 -10.41,-1.59 22.92,22.92 0 0 1 -7.75,-4.37 18.94,18.94 0 0 1 -4.84,-6.56 20.91,20.91 0 0 1 0,-16.53 18.14,18.14 0 0 1 5,-6.53 23.63,23.63 0 0 1 8,-4.25 34.9,34.9 0 0 1 10.74,-1.53 64,64 0 0 1 8.09,0.47 q 3.66,0.47 6.78,1.16 v -2 a 8.94,8.94 0 0 0 -0.94,-4.22 8.08,8.08 0 0 0 -2.62,-2.94 11.6,11.6 0 0 0 -4.06,-1.69 23.81,23.81 0 0 0 -5.19,-0.53 41.52,41.52 0 0 0 -10.34,1.16 39.34,39.34 0 0 0 -8.59,3.34 l -6,-12.12 a 53.07,53.07 0 0 1 13.37,-6.71 46.64,46.64 0 0 1 14.78,-2.31 44.42,44.42 0 0 1 11.22,1.39 22.77,22.77 0 0 1 8.84,4.38 20.49,20.49 0 0 1 5.78,7.91 30.07,30.07 0 0 1 2.09,11.88 v 23.56 h 8.69 v 17.07 h -27 z M 421,794.61 a 21.69,21.69 0 0 0 8.06,-1.44 23.78,23.78 0 0 0 6.19,-3.5 v -8.25 h -15 a 9.24,9.24 0 0 0 -2.81,0.44 8.36,8.36 0 0 0 -2.47,1.25 6.21,6.21 0 0 0 -1.75,2 5.6,5.6 0 0 0 -0.66,2.75 6.29,6.29 0 0 0 2.09,4.81 q 2.09,1.94 6.35,1.94 z"
     id="path26" />
  <path
     fill="#2f3640"
     d="m 515.78,760 a 8.27,8.27 0 0 0 -2.84,-2.41 17.86,17.86 0 0 0 -4.59,-1.66 27.62,27.62 0 0 0 -6.16,-0.62 19.59,19.59 0 0 0 -2.81,0.22 10.76,10.76 0 0 0 -2.78,0.78 5.93,5.93 0 0 0 -2.12,1.53 3.62,3.62 0 0 0 -0.84,2.47 4.69,4.69 0 0 0 0.22,1.44 3.26,3.26 0 0 0 0.84,1.31 6.28,6.28 0 0 0 1.72,1.16 11,11 0 0 0 2.84,0.84 l 11.75,2.31 a 52.44,52.44 0 0 1 10.69,3.13 23.63,23.63 0 0 1 6.94,4.38 15,15 0 0 1 3.78,5.56 18.61,18.61 0 0 1 1.16,6.63 18.14,18.14 0 0 1 -2.59,9.75 22.4,22.4 0 0 1 -6.81,7 32.14,32.14 0 0 1 -9.5,4.19 41.25,41.25 0 0 1 -10.66,1.41 42,42 0 0 1 -6.34,-0.44 32.07,32.07 0 0 1 -5.12,-1.19 21.47,21.47 0 0 1 -4.06,-1.78 23.46,23.46 0 0 1 -3.28,-2.28 H 473.87 V 786.3 h 17.69 v 0.38 a 5.23,5.23 0 0 0 1.13,3.16 8.92,8.92 0 0 0 2.78,2.28 14.41,14.41 0 0 0 3.91,1.41 22,22 0 0 0 4.63,0.47 q 5.63,0 8.19,-1.47 a 4.32,4.32 0 0 0 2.56,-3.78 4.27,4.27 0 0 0 -1.25,-3.09 9.18,9.18 0 0 0 -4.44,-2 l -12,-2.56 q -11.31,-2.19 -17.06,-7.28 a 16.69,16.69 0 0 1 -5.75,-13.09 16.94,16.94 0 0 1 2.19,-8.53 20.7,20.7 0 0 1 5.94,-6.56 28.87,28.87 0 0 1 8.78,-4.22 37.56,37.56 0 0 1 10.78,-1.5 46.67,46.67 0 0 1 7,0.47 38.7,38.7 0 0 1 5.5,1.22 22.06,22.06 0 0 1 4.28,1.78 25.66,25.66 0 0 1 3.28,2.16 h 10.86 v 17.38 H 516.75 A 4.92,4.92 0 0 0 515.78,760 Z"
     id="path27" />
  <path
     fill="#2f3640"
     d="m 551.00658,710.68134 h 29.19 v 38.45 a 29,29 0 0 1 8.09,-5.28 24.23,24.23 0 0 1 9.72,-1.91 q 11.69,0 17.88,6.53 6.19,6.53 6.19,19.09 v 23.19 h 9.5 v 17.18 h -28.94 v -35.94 q 0,-5.44 -2.69,-8.56 a 8.73,8.73 0 0 0 -6.94,-3.12 14.48,14.48 0 0 0 -6.12,1.56 28.5,28.5 0 0 0 -6.69,4.56 v 24.38 h 9.5 v 17.12 h -38.69 v -17.13 h 10 v -63 h -10 z"
     id="path28" />
  <metadata
     id="metadata29">
    <rdf:RDF>
      <cc:Work
         rdf:about="">
        <dc:title>Logo-17-dark-with-title</dc:title>
      </cc:Work>
    </rdf:RDF>
  </metadata>
  <path
     id="rect29-4"
     style="fill:#44bd32;stroke-width:0.755906;stroke-linecap:round;stroke-linejoin:bevel"
     d="m 681.62333,726.27126 v 66.07016 h -22.02339 v -66.07016 z m -44.04675,22.02338 h 66.07016 v 22.02339 h -66.07016 z" />
</svg>
