<?xml version="1.0" encoding="UTF-8" standalone="no"?>
<svg
   version="1.1"
   x="0px"
   y="0px"
   viewBox="0 0 20 20"
   xml:space="preserve"
   id="svg4"
   sodipodi:docname="camera.svg"
   width="20"
   height="20"
   inkscape:version="1.3 (0e150ed6c4, 2023-07-21)"
   xmlns:inkscape="http://www.inkscape.org/namespaces/inkscape"
   xmlns:sodipodi="http://sodipodi.sourceforge.net/DTD/sodipodi-0.dtd"
   xmlns="http://www.w3.org/2000/svg"
   xmlns:svg="http://www.w3.org/2000/svg"><defs
     id="defs4"><inkscape:path-effect
       effect="offset"
       id="path-effect6"
       is_visible="true"
       lpeversion="1.2"
       linejoin_type="miter"
       unit="mm"
       offset="-0.1"
       miter_limit="4"
       attempt_force_join="false"
       update_on_knot_move="true" /><inkscape:path-effect
       effect="offset"
       id="path-effect5"
       is_visible="true"
       lpeversion="1.2"
       linejoin_type="miter"
       unit="mm"
       offset="-0.1"
       miter_limit="4"
       attempt_force_join="false"
       update_on_knot_move="true" /><inkscape:path-effect
       effect="offset"
       id="path-effect4"
       is_visible="true"
       lpeversion="1.2"
       linejoin_type="miter"
       unit="mm"
       offset="-0.1"
       miter_limit="4"
       attempt_force_join="false"
       update_on_knot_move="true" /></defs><sodipodi:namedview
     id="namedview4"
     pagecolor="#ffffff"
     bordercolor="#666666"
     borderopacity="1.0"
     inkscape:showpageshadow="2"
     inkscape:pageopacity="0.0"
     inkscape:pagecheckerboard="0"
     inkscape:deskcolor="#d1d1d1"
     inkscape:zoom="5.7204939"
     inkscape:cx="29.455499"
     inkscape:cy="53.57929"
     inkscape:window-width="1920"
     inkscape:window-height="1009"
     inkscape:window-x="-8"
     inkscape:window-y="-8"
     inkscape:window-maximized="1"
     inkscape:current-layer="g3" /><g
     id="g3"
     style="fill:#000000"><path
       d="m 7,0.37890625 h 2 c 1.483228,0 2.621094,1.13786595 2.621094,2.62109375 v 1.3789062 h 3.757812 V 3 C 15.378906,2.6099757 15.609976,2.3789062 16,2.3789063 16.390024,2.3789062 16.621094,2.6099757 16.621094,3 V 4.3789062 H 17 c 1.483228,0 2.621094,1.137866 2.621094,2.6210938 v 10 c 0,1.483228 -1.137866,2.621094 -2.621094,2.621094 H 3 C 1.5167722,19.621094 0.37890625,18.483228 0.37890625,17 V 7 C 0.37890625,5.5167722 1.5167722,4.3789062 3,4.3789062 H 4.3789062 V 3 C 4.3789062,1.5167722 5.5167722,0.37890625 7,0.37890625 Z M 7,1.6210937 C 6.1900279,1.6210937 5.6210938,2.1900279 5.6210937,3 V 4.3789062 H 10.378906 V 3 C 10.378906,2.1900279 9.8099721,1.6210938 9,1.6210937 Z m -4,4 C 2.1900279,5.6210937 1.6210938,6.1900279 1.6210937,7 v 10 c 0,0.809972 0.5689342,1.378906 1.3789063,1.378906 h 14 c 0.809972,0 1.378906,-0.568934 1.378906,-1.378906 V 7 C 18.378906,6.1900279 17.809972,5.6210937 17,5.6210937 Z"
       id="path1"
       style="fill:#ffffff"
       inkscape:path-effect="#path-effect6"
       inkscape:original-d="M 17,4 V 3 C 17,2.4 16.6,2 16,2 15.4,2 15,2.4 15,3 V 4 H 12 V 3 C 12,1.3 10.7,0 9,0 H 7 C 5.3,0 4,1.3 4,3 V 4 H 3 C 1.3,4 0,5.3 0,7 v 10 c 0,1.7 1.3,3 3,3 h 14 c 1.7,0 3,-1.3 3,-3 V 7 C 20,5.3 18.7,4 17,4 Z M 6,3 C 6,2.4 6.4,2 7,2 h 2 c 0.6,0 1,0.4 1,1 V 4 H 6 Z m 12,14 c 0,0.6 -0.4,1 -1,1 H 3 C 2.4,18 2,17.6 2,17 V 7 C 2,6.4 2.4,6 3,6 c 6.8,0 7.7,0 14,0 0.6,0 1,0.4 1,1 z" /><path
       d="m 8,8.3789063 c 1.9906161,0 3.621094,1.6304777 3.621094,3.6210937 0,1.990616 -1.6304779,3.621094 -3.621094,3.621094 C 6.0093839,15.621094 4.3789063,13.990616 4.3789062,12 4.3789062,10.009384 6.0093839,8.3789062 8,8.3789063 Z m 0,1.2421875 c -1.309374,0 -2.3789063,1.0695322 -2.3789063,2.3789062 0,1.309374 1.0695323,2.378906 2.3789063,2.378906 1.309374,0 2.378906,-1.069532 2.378906,-2.378906 C 10.378906,10.690626 9.309374,9.6210937 8,9.6210938 Z"
       id="path2"
       style="fill:#ffffff"
       inkscape:path-effect="#path-effect4"
       inkscape:original-d="m 8,8 c -2.2,0 -4,1.8 -4,4 0,2.2 1.8,4 4,4 2.2,0 4,-1.8 4,-4 C 12,9.8 10.2,8 8,8 Z m 0,6 c -1.1,0 -2,-0.9 -2,-2 0,-1.1 0.9,-2 2,-2 1.1,0 2,0.9 2,2 0,1.1 -0.9,2 -2,2 z" /><path
       d="m 15,7.3789062 h 1 c 0.390024,0 0.621094,0.2310695 0.621094,0.6210938 0,0.3900243 -0.23107,0.6210938 -0.621094,0.6210938 H 15 C 14.609976,8.6210938 14.378906,8.3900243 14.378906,8 14.378906,7.6099757 14.609976,7.3789062 15,7.3789062 Z"
       id="path3"
       style="fill:#ffffff"
       inkscape:path-effect="#path-effect5"
       inkscape:original-d="m 16,7 h -1 c -0.6,0 -1,0.4 -1,1 0,0.6 0.4,1 1,1 h 1 C 16.6,9 17,8.6 17,8 17,7.4 16.6,7 16,7 Z" /></g><text
     x="0"
     y="35"
     fill="#000000"
     font-size="5px"
     font-weight="bold"
     font-family="'Helvetica Neue', Helvetica, Arial-Unicode, Arial, Sans-serif"
     id="text3">Created by ProSymbols</text><text
     x="0"
     y="40"
     fill="#000000"
     font-size="5px"
     font-weight="bold"
     font-family="'Helvetica Neue', Helvetica, Arial-Unicode, Arial, Sans-serif"
     id="text4">from the Noun Project</text></svg>
